<mxfile host="app.diagrams.net" agent="Mozilla/5.0 (Windows NT 10.0; Win64; x64) AppleWebKit/537.36 (KHTML, like Gecko) Chrome/138.0.0.0 Safari/537.36 Edg/138.0.0.0" version="27.2.0">
  <diagram name="Page-1" id="B7ypKxJ6UBQbOQEK7qXx">
    <mxGraphModel dx="2298" dy="1373" grid="1" gridSize="10" guides="1" tooltips="1" connect="1" arrows="1" fold="1" page="1" pageScale="1" pageWidth="850" pageHeight="1100" background="#ffffff" math="0" shadow="0">
      <root>
        <mxCell id="0" />
        <mxCell id="1" parent="0" />
        <mxCell id="I_QHsUmjhxNyvni-dwqb-2" value="  Python Backend - Flask" style="whiteSpace=wrap;strokeWidth=2;fontSize=20;align=left;labelPosition=center;verticalLabelPosition=middle;verticalAlign=top;fontStyle=3;fillColor=#fff2cc;strokeColor=#d6b656;" parent="1" vertex="1">
          <mxGeometry x="230" y="170" width="990" height="560" as="geometry" />
        </mxCell>
        <mxCell id="CRdauCQWdr09auiODn36-16" value="  Machine Learning Models   " style="whiteSpace=wrap;strokeWidth=2;fontSize=20;align=right;labelPosition=center;verticalLabelPosition=middle;verticalAlign=top;fontStyle=3;fillColor=#e1d5e7;strokeColor=#9673a6;" vertex="1" parent="1">
          <mxGeometry x="720" y="534.95" width="360" height="165.05" as="geometry" />
        </mxCell>
        <mxCell id="CRdauCQWdr09auiODn36-15" value="  Input" style="whiteSpace=wrap;strokeWidth=2;fontSize=20;align=left;labelPosition=center;verticalLabelPosition=middle;verticalAlign=top;fontStyle=3;fillColor=#dae8fc;strokeColor=#6c8ebf;" vertex="1" parent="1">
          <mxGeometry x="354" y="7" width="300" height="140" as="geometry" />
        </mxCell>
        <mxCell id="I_QHsUmjhxNyvni-dwqb-1" value="Training Data" style="whiteSpace=wrap;strokeWidth=2;fontSize=20;verticalAlign=top;fontStyle=3;fillColor=#ffcccc;strokeColor=#36393d;" parent="1" vertex="1">
          <mxGeometry x="490" y="760.5" width="640" height="138" as="geometry" />
        </mxCell>
        <mxCell id="I_QHsUmjhxNyvni-dwqb-4" value="User Uploads Image or Video" style="whiteSpace=wrap;strokeWidth=2;fontSize=20;" parent="1" vertex="1">
          <mxGeometry x="374" y="47" width="260" height="78" as="geometry" />
        </mxCell>
        <mxCell id="I_QHsUmjhxNyvni-dwqb-6" value="API Endpoint: /predict" style="whiteSpace=wrap;strokeWidth=2;fontSize=20;" parent="1" vertex="1">
          <mxGeometry x="393" y="205.5" width="222" height="54" as="geometry" />
        </mxCell>
        <mxCell id="I_QHsUmjhxNyvni-dwqb-7" value="Extract Frames with OpenCV" style="whiteSpace=wrap;strokeWidth=2;fontSize=20;" parent="1" vertex="1">
          <mxGeometry x="374" y="309.5" width="260" height="78" as="geometry" />
        </mxCell>
        <mxCell id="I_QHsUmjhxNyvni-dwqb-8" value="Detect Face using Mediapipe" style="whiteSpace=wrap;strokeWidth=2;fontSize=20;" parent="1" vertex="1">
          <mxGeometry x="374" y="437.5" width="260" height="78" as="geometry" />
        </mxCell>
        <mxCell id="I_QHsUmjhxNyvni-dwqb-9" value="Resize and Crop Frame" style="whiteSpace=wrap;strokeWidth=2;fontSize=20;" parent="1" vertex="1">
          <mxGeometry x="392" y="602.5" width="224" height="54" as="geometry" />
        </mxCell>
        <mxCell id="I_QHsUmjhxNyvni-dwqb-12" value="Generate Grad-CAM Heatmap" style="whiteSpace=wrap;strokeWidth=2;fontSize=20;" parent="1" vertex="1">
          <mxGeometry x="1305" y="470.5" width="260" height="78" as="geometry" />
        </mxCell>
        <mxCell id="CRdauCQWdr09auiODn36-5" style="edgeStyle=orthogonalEdgeStyle;rounded=0;orthogonalLoop=1;jettySize=auto;html=1;exitX=0.5;exitY=1;exitDx=0;exitDy=0;strokeWidth=4;entryX=0.5;entryY=0;entryDx=0;entryDy=0;" edge="1" parent="1" source="I_QHsUmjhxNyvni-dwqb-13" target="CRdauCQWdr09auiODn36-9">
          <mxGeometry relative="1" as="geometry" />
        </mxCell>
        <mxCell id="I_QHsUmjhxNyvni-dwqb-13" value="Return Prediction and Heatmap" style="whiteSpace=wrap;strokeWidth=2;fontSize=20;" parent="1" vertex="1">
          <mxGeometry x="1305" y="586.5" width="260" height="78" as="geometry" />
        </mxCell>
        <mxCell id="I_QHsUmjhxNyvni-dwqb-14" value="DFDC or FaceForensics++ Dataset" style="whiteSpace=wrap;strokeWidth=2;fontSize=20;" parent="1" vertex="1">
          <mxGeometry x="525" y="795.5" width="260" height="78" as="geometry" />
        </mxCell>
        <mxCell id="I_QHsUmjhxNyvni-dwqb-15" value="Model Weights and Checkpoints" style="whiteSpace=wrap;strokeWidth=2;fontSize=20;" parent="1" vertex="1">
          <mxGeometry x="835" y="795.5" width="275" height="78" as="geometry" />
        </mxCell>
        <mxCell id="I_QHsUmjhxNyvni-dwqb-16" value="" style="curved=1;startArrow=none;endArrow=block;exitX=0.5;exitY=1;entryX=0.5;entryY=0;rounded=0;entryDx=0;entryDy=0;strokeWidth=4;" parent="1" source="I_QHsUmjhxNyvni-dwqb-4" target="I_QHsUmjhxNyvni-dwqb-6" edge="1">
          <mxGeometry relative="1" as="geometry">
            <Array as="points" />
          </mxGeometry>
        </mxCell>
        <mxCell id="I_QHsUmjhxNyvni-dwqb-17" value="" style="curved=1;startArrow=none;endArrow=block;exitX=0.5;exitY=1;entryX=0.5;entryY=0;rounded=0;strokeWidth=4;" parent="1" source="I_QHsUmjhxNyvni-dwqb-6" target="I_QHsUmjhxNyvni-dwqb-7" edge="1">
          <mxGeometry relative="1" as="geometry">
            <Array as="points" />
          </mxGeometry>
        </mxCell>
        <mxCell id="I_QHsUmjhxNyvni-dwqb-18" value="" style="curved=1;startArrow=none;endArrow=block;exitX=0.5;exitY=1;entryX=0.5;entryY=0;rounded=0;strokeWidth=4;" parent="1" source="I_QHsUmjhxNyvni-dwqb-7" target="I_QHsUmjhxNyvni-dwqb-8" edge="1">
          <mxGeometry relative="1" as="geometry">
            <Array as="points" />
          </mxGeometry>
        </mxCell>
        <mxCell id="I_QHsUmjhxNyvni-dwqb-19" value="" style="curved=1;startArrow=none;endArrow=block;exitX=0.5;exitY=1;entryX=0.5;entryY=0;rounded=0;strokeWidth=4;" parent="1" source="I_QHsUmjhxNyvni-dwqb-8" target="I_QHsUmjhxNyvni-dwqb-9" edge="1">
          <mxGeometry relative="1" as="geometry">
            <Array as="points" />
          </mxGeometry>
        </mxCell>
        <mxCell id="I_QHsUmjhxNyvni-dwqb-20" value="" style="curved=1;startArrow=none;endArrow=block;exitX=1;exitY=0.5;entryX=0;entryY=0.5;rounded=0;entryDx=0;entryDy=0;exitDx=0;exitDy=0;strokeWidth=4;" parent="1" source="I_QHsUmjhxNyvni-dwqb-9" target="CRdauCQWdr09auiODn36-10" edge="1">
          <mxGeometry relative="1" as="geometry">
            <Array as="points" />
            <mxPoint x="602" y="652.5" as="sourcePoint" />
            <mxPoint x="900" y="629.5" as="targetPoint" />
          </mxGeometry>
        </mxCell>
        <mxCell id="I_QHsUmjhxNyvni-dwqb-21" value="" style="curved=1;startArrow=none;endArrow=block;entryX=0.001;entryY=0.527;rounded=0;entryDx=0;entryDy=0;entryPerimeter=0;exitX=1;exitY=0.664;exitDx=0;exitDy=0;exitPerimeter=0;strokeWidth=4;" parent="1" target="I_QHsUmjhxNyvni-dwqb-29" edge="1">
          <mxGeometry relative="1" as="geometry">
            <Array as="points">
              <mxPoint x="1610" y="444" />
            </Array>
            <mxPoint x="1572.1599999999999" y="507.1400000000003" as="sourcePoint" />
          </mxGeometry>
        </mxCell>
        <mxCell id="I_QHsUmjhxNyvni-dwqb-24" value="" style="curved=1;startArrow=none;endArrow=block;exitX=0.5;exitY=1;entryX=0.5;entryY=0;rounded=0;entryDx=0;entryDy=0;strokeWidth=4;" parent="1" source="I_QHsUmjhxNyvni-dwqb-12" target="I_QHsUmjhxNyvni-dwqb-13" edge="1">
          <mxGeometry relative="1" as="geometry">
            <Array as="points" />
          </mxGeometry>
        </mxCell>
        <mxCell id="I_QHsUmjhxNyvni-dwqb-26" value="" style="curved=1;startArrow=none;endArrow=block;rounded=0;strokeWidth=4;exitX=0.5;exitY=0;exitDx=0;exitDy=0;" parent="1" source="I_QHsUmjhxNyvni-dwqb-1" edge="1">
          <mxGeometry relative="1" as="geometry">
            <Array as="points" />
            <mxPoint x="700" y="770.5" as="sourcePoint" />
            <mxPoint x="810" y="670.5" as="targetPoint" />
          </mxGeometry>
        </mxCell>
        <mxCell id="CRdauCQWdr09auiODn36-6" style="edgeStyle=orthogonalEdgeStyle;rounded=0;orthogonalLoop=1;jettySize=auto;html=1;entryX=0.5;entryY=0;entryDx=0;entryDy=0;strokeWidth=4;exitX=0.5;exitY=0;exitDx=0;exitDy=0;" edge="1" parent="1" source="CRdauCQWdr09auiODn36-10">
          <mxGeometry relative="1" as="geometry">
            <mxPoint x="835.04" y="600.6800000000001" as="sourcePoint" />
            <mxPoint x="1440" y="470" as="targetPoint" />
            <Array as="points">
              <mxPoint x="810" y="400" />
              <mxPoint x="1440" y="400" />
            </Array>
          </mxGeometry>
        </mxCell>
        <mxCell id="CRdauCQWdr09auiODn36-9" value="  Output" style="whiteSpace=wrap;strokeWidth=2;fontSize=20;align=left;labelPosition=center;verticalLabelPosition=middle;verticalAlign=top;fontStyle=3;fillColor=#d5e8d4;strokeColor=#82b366;" vertex="1" parent="1">
          <mxGeometry x="1275" y="738.5" width="320" height="160" as="geometry" />
        </mxCell>
        <mxCell id="CRdauCQWdr09auiODn36-4" value="Display Prediction and Heatmap" style="whiteSpace=wrap;strokeWidth=2;fontSize=20;" vertex="1" parent="1">
          <mxGeometry x="1305" y="779.5" width="260" height="78" as="geometry" />
        </mxCell>
        <mxCell id="CRdauCQWdr09auiODn36-12" style="edgeStyle=orthogonalEdgeStyle;rounded=0;orthogonalLoop=1;jettySize=auto;html=1;exitX=1;exitY=0.5;exitDx=0;exitDy=0;strokeWidth=4;" edge="1" parent="1" source="CRdauCQWdr09auiODn36-10" target="CRdauCQWdr09auiODn36-11">
          <mxGeometry relative="1" as="geometry" />
        </mxCell>
        <mxCell id="CRdauCQWdr09auiODn36-10" value="Xception Model" style="rounded=0;whiteSpace=wrap;html=1;fontSize=20;" vertex="1" parent="1">
          <mxGeometry x="750" y="599.5" width="120" height="60" as="geometry" />
        </mxCell>
        <mxCell id="CRdauCQWdr09auiODn36-13" style="edgeStyle=orthogonalEdgeStyle;rounded=0;orthogonalLoop=1;jettySize=auto;html=1;exitX=1;exitY=0.5;exitDx=0;exitDy=0;entryX=0;entryY=0.5;entryDx=0;entryDy=0;strokeWidth=4;" edge="1" parent="1" source="CRdauCQWdr09auiODn36-11" target="I_QHsUmjhxNyvni-dwqb-13">
          <mxGeometry relative="1" as="geometry">
            <mxPoint x="2400" y="430.5" as="targetPoint" />
            <Array as="points">
              <mxPoint x="1040" y="626" />
            </Array>
          </mxGeometry>
        </mxCell>
        <mxCell id="CRdauCQWdr09auiODn36-11" value="BI-LSTM" style="rounded=0;whiteSpace=wrap;html=1;fontSize=20;" vertex="1" parent="1">
          <mxGeometry x="920" y="599.5" width="120" height="60" as="geometry" />
        </mxCell>
      </root>
    </mxGraphModel>
  </diagram>
</mxfile>
